<svg id="Layer_1" data-name="Layer 1" xmlns="http://www.w3.org/2000/svg" xmlns:xlink="http://www.w3.org/1999/xlink" viewBox="0 0 400 400"><defs><style>.cls-1{fill:none;}.cls-2{clip-path:url(#clip-path);}.cls-3{fill:url(#linear-gradient);}</style><clipPath id="clip-path"><path class="cls-1" d="M333.5,107H66.5a6,6,0,0,0-6,6V287a6,6,0,0,0,6,6h267a6,6,0,0,0,6-6V113A6,6,0,0,0,333.5,107Zm-261,21.23,72.27,72.27L72.5,272.77ZM200.38,239.14,80.24,119H320.52ZM153.25,209l42.88,42.89a6,6,0,0,0,8.49,0L247.5,209l72,72H81.24ZM256,200.5,327.5,129V272Z"/></clipPath><linearGradient id="linear-gradient" x1="-61.5" y1="-3094" x2="255.5" y2="-3094" gradientTransform="translate(103 3294)" gradientUnits="userSpaceOnUse"><stop offset="0" stop-color="#1c78e4"/><stop offset="1" stop-color="#222b47"/></linearGradient></defs><title>advance_icon</title><g class="cls-2"><rect class="cls-3" x="41.5" y="41.5" width="317" height="317" transform="translate(400) rotate(90)"/></g></svg>