<svg id="Layer_1" data-name="Layer 1" xmlns="http://www.w3.org/2000/svg" xmlns:xlink="http://www.w3.org/1999/xlink" viewBox="0 0 400 400"><defs><style>.cls-1{fill:none;}.cls-2{clip-path:url(#clip-path);}.cls-3{fill:url(#linear-gradient);}.cls-4{clip-path:url(#clip-path-2);}</style><clipPath id="clip-path"><path class="cls-1" d="M184.69,198a6,6,0,1,0-7.82,9.1A37.18,37.18,0,0,0,194,215.94V220a6,6,0,0,0,12,0v-3.53c11.19-1.47,19.22-9.37,19.22-19.53v-.17c0-12.27-9.16-17-19.22-19.57V159.66a21.92,21.92,0,0,1,7.86,3.88,6,6,0,0,0,7.13-9.66,33.07,33.07,0,0,0-15-6.45v-3.77a6,6,0,1,0-12,0v3.78c-10.6,2-18.06,9.68-18.06,19.46v.17c0,12.77,10.25,17.56,18.06,19.72v16.79A27,27,0,0,1,184.69,198Zm28.53-1.24V197c0,3.62-2.83,6.36-7.22,7.37V189.69C213.22,192,213.22,194.53,213.22,196.79Zm-25.28-29.72v-.17c0-3.16,2.4-5.77,6.06-7.07v14.31C188.52,172,187.94,169.65,187.94,167.07Z"/></clipPath><linearGradient id="linear-gradient" x1="-1037.5" y1="-2118" x2="-720.5" y2="-2118" gradientTransform="translate(1079 2318)" gradientUnits="userSpaceOnUse"><stop offset="0" stop-color="#1c78e4"/><stop offset="1" stop-color="#222b47"/></linearGradient><clipPath id="clip-path-2"><path class="cls-1" d="M333,109.34H67a6,6,0,0,0-6,6V295.67a6,6,0,0,0,6,6H333a6,6,0,0,0,6-6V115.34A6,6,0,0,0,333,109.34Zm-224.24,12H291.24A40.07,40.07,0,0,0,327,156.8v48.4a40.07,40.07,0,0,0-35.9,37.14H108.9A40.07,40.07,0,0,0,73,205.2V156.8A40.07,40.07,0,0,0,108.76,121.34ZM327,234.67v7.67H303.13A28,28,0,0,1,327,217.29Zm-254,0V217.29a28,28,0,0,1,23.87,25.05H73Zm0,19.67H327V266H73ZM327,144.71a28.06,28.06,0,0,1-23.66-23.37H327ZM96.66,121.34A28.06,28.06,0,0,1,73,144.71V121.34ZM73,289.67V278H327v11.66Z"/></clipPath></defs><title>budgeting_icon</title><g class="cls-2"><rect class="cls-3" x="41.5" y="41.5" width="317" height="317" transform="translate(400 0) rotate(90)"/></g><g class="cls-4"><rect class="cls-3" x="41.5" y="41.5" width="317" height="317" transform="translate(400 0) rotate(90)"/></g></svg>