<svg id="Layer_1" data-name="Layer 1" xmlns="http://www.w3.org/2000/svg" xmlns:xlink="http://www.w3.org/1999/xlink" viewBox="0 0 400 400"><defs><style>.cls-1{fill:none;}.cls-2{clip-path:url(#clip-path);}.cls-3{fill:url(#linear-gradient);}.cls-4{clip-path:url(#clip-path-2);}</style><clipPath id="clip-path"><path class="cls-1" d="M358,127.5a6,6,0,0,0-3.25-3.65L256.86,79.7a6,6,0,0,0-5.39.23C240.2,86.21,221,90,200,90s-40.06-3.72-51.34-10a6,6,0,0,0-5.36-.22l-98,44.07a6,6,0,0,0-2.72,8.51l31,52.71A6,6,0,0,0,81,187.59L114.76,174,111,307.79a6,6,0,0,0,6,6.17H239.75l-1.92,5.55a6,6,0,0,0,3.71,7.63L286,342.5a5.85,5.85,0,0,0,2,.33,6,6,0,0,0,5.67-4l21.58-62.37a6,6,0,0,0-3.71-7.64l-24.77-8.56-2.42-86.65,34.73,14a6,6,0,0,0,7.42-2.52l31-52.71A6,6,0,0,0,358,127.5ZM250.3,93.7C245.91,110.9,225,124,200,124S154.09,110.9,149.7,93.7c13,5.23,31.13,8.26,50.3,8.26S237.3,98.93,250.3,93.7Zm33.91,235.5-33.07-11.44,17.65-51,33.07,11.43ZM318.7,174.53,280.26,159a6,6,0,0,0-8.24,5.73L274.56,256,267,253.42a6,6,0,0,0-7.63,3.71L243.9,302H123.19L127,165.13a6,6,0,0,0-8.24-5.73L81.3,174.53l-25-42.48,81.49-36.63C143,118.42,168.89,136,200,136s57.12-17.6,62.24-40.67L343.7,132Z"/></clipPath><linearGradient id="linear-gradient" x1="1413.5" y1="-4560.5" x2="1730.5" y2="-4560.5" gradientTransform="translate(-1369.5 4771.5)" gradientUnits="userSpaceOnUse"><stop offset="0" stop-color="#1c78e4"/><stop offset="1" stop-color="#222b47"/></linearGradient><clipPath id="clip-path-2"><path class="cls-1" d="M180,171H151a6,6,0,0,1,0-12h29a6,6,0,0,1,0,12Z"/></clipPath></defs><title>fanclub_icon</title><g class="cls-2"><rect class="cls-3" x="44" y="39.5" width="317" height="343" transform="translate(413.5 8.5) rotate(90)"/></g><g class="cls-4"><rect class="cls-3" x="44" y="39.5" width="317" height="343" transform="translate(413.5 8.5) rotate(90)"/></g></svg>