<svg id="Layer_1" data-name="Layer 1" xmlns="http://www.w3.org/2000/svg" xmlns:xlink="http://www.w3.org/1999/xlink" viewBox="0 0 264 264"><defs><style>.cls-1{fill:none;}.cls-2{clip-path:url(#clip-path);}.cls-3{fill:url(#linear-gradient);}</style><clipPath id="clip-path"><path class="cls-1" d="M218.51,122.86a24,24,0,1,0-40.62,0,37.53,37.53,0,0,0-6.75,5.52,60.29,60.29,0,0,0-10.58-7.27,36.72,36.72,0,1,0-57.12,0,60.29,60.29,0,0,0-10.58,7.27,37.53,37.53,0,0,0-6.75-5.52,24,24,0,1,0-40.62,0,37.81,37.81,0,0,0-17.44,31.82A13.78,13.78,0,0,0,33.1,165.2c7,6.18,20.27,8.63,32.65,8.63,2,0,4-.07,6-.2,0,.18,0,.36,0,.54,0,6.75,3.62,16.13,20.88,22.49,10.49,3.86,24.47,6,39.37,6s28.88-2.12,39.37-6c17.26-6.36,20.88-15.74,20.88-22.49,0-.18,0-.36,0-.54,2,.13,4,.2,6,.2,12.38,0,25.69-2.45,32.65-8.63a13.78,13.78,0,0,0,5-10.52A37.81,37.81,0,0,0,218.51,122.86ZM41.06,156.22c-.67-.59-1-1.11-1-1.54a25.79,25.79,0,0,1,17.22-24.3,6,6,0,0,0,1.53-10.52,12,12,0,1,1,14,0,6,6,0,0,0,1.52,10.52,25.73,25.73,0,0,1,10.24,6.69,60.38,60.38,0,0,0-11.45,24.42C60,162.74,45.86,160.48,41.06,156.22ZM132,190.64c-26.6,0-48.25-7.39-48.25-16.47A48.31,48.31,0,0,1,116,128.64a6,6,0,0,0,1.52-10.52,24.72,24.72,0,1,1,28.9,0A6,6,0,0,0,148,128.64a48.31,48.31,0,0,1,32.28,45.53C180.25,183.25,158.6,190.64,132,190.64Zm90.94-34.42c-4.8,4.26-18.89,6.53-32.05,5.27a60.38,60.38,0,0,0-11.45-24.42,25.73,25.73,0,0,1,10.24-6.69,6,6,0,0,0,1.52-10.52,12,12,0,1,1,14,0,6,6,0,0,0,1.53,10.52A25.79,25.79,0,0,1,224,154.68C224,155.11,223.61,155.63,222.94,156.22Z"/></clipPath><linearGradient id="linear-gradient" x1="-2456.54" y1="-3581.08" x2="-2227.62" y2="-3581.08" gradientTransform="translate(2474.08 3713.08)" gradientUnits="userSpaceOnUse"><stop offset="0" stop-color="#1c78e4"/><stop offset="1" stop-color="#222b47"/></linearGradient></defs><title>budgeting_icon copy 3</title><g class="cls-2"><rect class="cls-3" x="17.54" y="17.54" width="228.92" height="228.92" transform="translate(264 0) rotate(90)"/></g></svg>