<svg id="Layer_1" data-name="Layer 1" xmlns="http://www.w3.org/2000/svg" xmlns:xlink="http://www.w3.org/1999/xlink" viewBox="0 0 264 264"><defs><style>.cls-1{fill:none;}.cls-2{clip-path:url(#clip-path);}.cls-3{fill:url(#linear-gradient);}</style><clipPath id="clip-path"><path class="cls-1" d="M149.38,130.47V79.16a54.8,54.8,0,0,1,16.08,8.53A6,6,0,0,0,172.58,78a64.62,64.62,0,0,0-23.2-11.34V50.89a6,6,0,1,0-12,0V64.83c-2.12-.15-4.31-.23-6.6-.23-1.41,0-2.8.06-4.16.16V50.89a6,6,0,1,0-12,0V67c-16.12,5.07-27,17.69-27,33.24v.37c0,18.68,11.61,27.87,27,33.3v49.75c-6.7-2.56-13-6.53-19.54-12.17a6,6,0,0,0-7.82,9.1c9,7.71,17.75,12.82,27.36,15.74v16.76a6,6,0,0,0,12,0V198.83a84.89,84.89,0,0,0,10,.57l.76,0v13.73a6,6,0,0,0,12,0V197.94c17.63-4.2,29.45-17.14,29.45-33.82v-.36C178.83,145.11,167.5,136.07,149.38,130.47ZM130.78,76.6c2.31,0,4.5.09,6.6.27V127.4l-2.63-.55c-2.92-.59-5.62-1.2-8.13-1.84V76.8C128,76.67,129.36,76.6,130.78,76.6Zm-31.14,24v-.37c0-8.92,5.87-16.39,15-20.43v41.24C103.86,116.41,99.64,110.18,99.64,100.63Zm37,86.77a72.45,72.45,0,0,1-10-.67V137.36q2.85.67,5.76,1.26,2.63.52,5,1.08v47.68Zm30.21-23.28c0,9.91-6.87,17.82-17.45,21.32V143.13c14.26,5.16,17.45,11.65,17.45,20.63Z"/></clipPath><linearGradient id="linear-gradient" x1="-2105.79" y1="-3230.33" x2="-1876.87" y2="-3230.33" gradientTransform="translate(2123.33 3362.33)" gradientUnits="userSpaceOnUse"><stop offset="0" stop-color="#1c78e4"/><stop offset="1" stop-color="#222b47"/></linearGradient></defs><title>budgeting_icon copy 2</title><g class="cls-2"><rect class="cls-3" x="17.54" y="17.54" width="228.92" height="228.92" transform="translate(264 0) rotate(90)"/></g></svg>