<svg id="Layer_1" data-name="Layer 1" xmlns="http://www.w3.org/2000/svg" xmlns:xlink="http://www.w3.org/1999/xlink" viewBox="0 0 400 400"><defs><style>.cls-1{fill:none;}.cls-2{clip-path:url(#clip-path);}.cls-3{fill:url(#linear-gradient);}.cls-4{clip-path:url(#clip-path-2);}</style><clipPath id="clip-path"><path class="cls-1" d="M200,301a20.51,20.51,0,0,0-20.48,20.48c0,13.33,14.27,30.63,15.89,32.56a6,6,0,0,0,4.53,2.13H200a6,6,0,0,0,4.51-2.05c1.63-1.86,16-18.61,16-32.64A20.51,20.51,0,0,0,200,301Zm.06,39.34c-4.27-6.15-8.54-13.9-8.54-18.86a8.48,8.48,0,0,1,17,0C208.48,326.73,204.28,334.38,200.06,340.37Z"/></clipPath><linearGradient id="linear-gradient" x1="426.5" y1="-3582" x2="743.5" y2="-3582" gradientTransform="translate(-385 3782)" gradientUnits="userSpaceOnUse"><stop offset="0" stop-color="#1c78e4"/><stop offset="1" stop-color="#222b47"/></linearGradient><clipPath id="clip-path-2"><path class="cls-1" d="M253.25,234.27a65.67,65.67,0,0,0-17.75-17.82l4.2-71.3a136.42,136.42,0,0,0-35.14-99.34l-4.43,4,4.4-4.08a6,6,0,0,0-4.43-2h0a6,6,0,0,0-4.42,2,136.4,136.4,0,0,0-35.36,99.58l4.19,71.13a65.65,65.65,0,0,0-17.74,17.81c-7.43,11-14.84,29.34-8,54.38a6,6,0,0,0,4,4.14,5.9,5.9,0,0,0,1.81.28,6,6,0,0,0,3.82-1.37l25.45-21,.05,0H194v16.4a6,6,0,0,0,12,0v-16.4h20.16l.05,0,25.45,21a6,6,0,0,0,3.82,1.37,5.9,5.9,0,0,0,1.81-.28,6,6,0,0,0,4-4.14C268.09,263.61,260.68,245.26,253.25,234.27ZM200.08,59a124.66,124.66,0,0,1,26.2,58.34H173.75A124.48,124.48,0,0,1,200.08,59ZM148.45,276.06c-2.82-23.38,9.29-38.25,16.9-45.12l1.76,29.87a5.86,5.86,0,0,0-1,.64ZM206,258.67V231.76a6,6,0,0,0-12,0v26.91H179l-6.72-114a122.17,122.17,0,0,1,.07-15.31h55.31a121.37,121.37,0,0,1,.06,15.14L221,258.67Zm45.54,17.38-17.7-14.6a5.59,5.59,0,0,0-1-.65L234.64,231C242.2,237.91,254.28,252.85,251.54,276.05Z"/></clipPath></defs><title>tour_marketing_icon</title><g class="cls-2"><rect class="cls-3" x="41.5" y="41.5" width="317" height="317" transform="translate(400) rotate(90)"/></g><g class="cls-4"><rect class="cls-3" x="41.5" y="41.5" width="317" height="317" transform="translate(400) rotate(90)"/></g></svg>