<svg id="Layer_1" data-name="Layer 1" xmlns="http://www.w3.org/2000/svg" xmlns:xlink="http://www.w3.org/1999/xlink" viewBox="0 0 400 400"><defs><style>.cls-1{fill:none;}.cls-2{clip-path:url(#clip-path);}.cls-3{fill:url(#linear-gradient);}.cls-4{clip-path:url(#clip-path-2);}</style><clipPath id="clip-path"><path class="cls-1" d="M322.29,91.69A25.94,25.94,0,0,0,308.4,77.77c-28.94-12-55.11,12.32-72.27,31.7-5,5.61-10.13,11.46-15.77,17.91a4.49,4.49,0,0,0-.54.53l-6.3,7.22L91.05,103.91a6,6,0,0,0-7.13,3.8L75.2,132.09A6,6,0,0,0,77.37,139l82,58.21-24,27.49-38-17.18a6,6,0,0,0-7.45,2.13L75.64,230.84a6,6,0,0,0,1.09,7.91l26.57,22.56-1.69,1.88a6,6,0,0,0,.21,8.26l26.8,26.8a6,6,0,0,0,8.26.21l1.88-1.69,22.54,26.55a6,6,0,0,0,4.58,2.12,5.93,5.93,0,0,0,3.34-1L190.4,310.2a6,6,0,0,0,2.13-7.45l-17.3-38.29c9.49-8.35,18.92-16.58,27.43-24l58.39,82.19a6,6,0,0,0,6.91,2.18l24.39-8.73a6,6,0,0,0,3.79-7.13L264.89,186.38c9.49-8.33,17.88-15.75,25.56-22.62C309.76,146.48,334.07,120.21,322.29,91.69ZM88,131.86l5.35-15,111.3,28.37-37.42,42.88Zm.56,101.22L97,220.56l30.11,13.6-15.85,18.16Zm90.91,70L167,311.47l-19.52-23,18.27-15.9Zm103.66,3.6-15,5.36-56.48-79.5,43-37.44ZM263.81,171.34a6,6,0,0,0-.66.5L132.73,285.39l-5-5L144,264.23a6,6,0,0,0-8.49-8.48l-16.19,16.18L114.36,267l1.24-1.43.75-.83.34-.42,23.76-27.23a6.18,6.18,0,0,0,1.21-1c11.51-13,22.78-26,31.31-35.83a5.77,5.77,0,0,0,.95-1.5l45.8-52.49a5.07,5.07,0,0,0,.47-.46c9.47-10.87,17.39-19.89,24.92-28.39,23.4-26.41,42.05-35.49,58.67-28.57a13.84,13.84,0,0,1,7.42,7.43c6.84,16.57-2,34.62-28.76,58.53C276.69,160,270.53,165.43,263.81,171.34Z"/></clipPath><linearGradient id="linear-gradient" x1="925.5" y1="-4072.5" x2="1242.5" y2="-4072.5" gradientTransform="translate(-881.5 4283.5)" gradientUnits="userSpaceOnUse"><stop offset="0" stop-color="#1c78e4"/><stop offset="1" stop-color="#222b47"/></linearGradient><clipPath id="clip-path-2"><path class="cls-1" d="M297.91,115.93a6,6,0,0,0,4.24-10.24l-8.79-8.79a6,6,0,0,0-8.49,8.49l8.79,8.79A6,6,0,0,0,297.91,115.93Z"/></clipPath></defs><title>travel_icon</title><g class="cls-2"><rect class="cls-3" x="44" y="39.5" width="317" height="343" transform="translate(413.5 8.5) rotate(90)"/></g><g class="cls-4"><rect class="cls-3" x="44" y="39.5" width="317" height="343" transform="translate(413.5 8.5) rotate(90)"/></g></svg>