<svg id="Layer_1" data-name="Layer 1" xmlns="http://www.w3.org/2000/svg" xmlns:xlink="http://www.w3.org/1999/xlink" viewBox="0 0 400 400"><defs><style>.cls-1{fill:none;}.cls-2{clip-path:url(#clip-path);}.cls-3{fill:url(#linear-gradient);}.cls-4{clip-path:url(#clip-path-2);}.cls-5{clip-path:url(#clip-path-3);}.cls-6{clip-path:url(#clip-path-4);}</style><clipPath id="clip-path"><path class="cls-1" d="M288,93H268V69a6,6,0,0,0-7.18-5.88l-150,30h0a5.73,5.73,0,0,0-1.68.61c-.13.07-.26.14-.38.22l-.12.08a4.22,4.22,0,0,0-.36.27l-.1.07-.29.27a.86.86,0,0,0-.14.13l-.21.22-.18.21a1.09,1.09,0,0,0-.13.17c-.07.1-.15.19-.22.3l-.06.1c-.08.13-.17.26-.24.39l0,0A6.07,6.07,0,0,0,106,99h0V331a6,6,0,0,0,6,6H288a6,6,0,0,0,6-6V99A6,6,0,0,0,288,93Zm-32,0H172.59L256,76.32Zm26,232H118V105H282Z"/></clipPath><linearGradient id="linear-gradient" x1="-549.5" y1="-2606" x2="-232.5" y2="-2606" gradientTransform="translate(591 2806)" gradientUnits="userSpaceOnUse"><stop offset="0" stop-color="#1c78e4"/><stop offset="1" stop-color="#222b47"/></linearGradient><clipPath id="clip-path-2"><path class="cls-1" d="M200,241a54,54,0,1,0-54-54A54.06,54.06,0,0,0,200,241Zm-41.56-48H173a85.27,85.27,0,0,0,7.6,31.24A42.11,42.11,0,0,1,158.44,193Zm38.88,35.91a6,6,0,0,0-.45-.71c-6.78-8.93-11-21.54-11.86-35.2h30c-.87,13.66-5.08,26.27-11.86,35.2a6,6,0,0,0-.45.71c-.89.06-1.78.09-2.68.09S198.21,229,197.32,228.94Zm22.08-4.67A85.27,85.27,0,0,0,227,193h14.56A42.11,42.11,0,0,1,219.4,224.27ZM241.56,181H226.93a83.46,83.46,0,0,0-8.41-31.68A42.09,42.09,0,0,1,241.56,181Zm-40-36a6.43,6.43,0,0,0,.63.94c7.11,8.7,11.6,21.21,12.7,35H185.11c1.1-13.81,5.59-26.32,12.7-35a6.43,6.43,0,0,0,.63-.94c.52,0,1,0,1.56,0S201,145.05,201.56,145.07Zm-20.08,4.28A83.46,83.46,0,0,0,173.07,181H158.44A42.09,42.09,0,0,1,181.48,149.35Z"/></clipPath><clipPath id="clip-path-3"><path class="cls-1" d="M151,275h98a6,6,0,0,0,0-12H151a6,6,0,0,0,0,12Z"/></clipPath><clipPath id="clip-path-4"><path class="cls-1" d="M220,293H180a6,6,0,0,0,0,12h40a6,6,0,0,0,0-12Z"/></clipPath></defs><title>visa_icon</title><g class="cls-2"><rect class="cls-3" x="41.5" y="41.5" width="317" height="317" transform="translate(400) rotate(90)"/></g><g class="cls-4"><rect class="cls-3" x="41.5" y="41.5" width="317" height="317" transform="translate(400) rotate(90)"/></g><g class="cls-5"><rect class="cls-3" x="41.5" y="41.5" width="317" height="317" transform="translate(400) rotate(90)"/></g><g class="cls-6"><rect class="cls-3" x="41.5" y="41.5" width="317" height="317" transform="translate(400) rotate(90)"/></g></svg>